<?xml version="1.0" standalone="no"?>
<!DOCTYPE svg PUBLIC "-//W3C//DTD SVG 20010904//EN"
 "http://www.w3.org/TR/2001/REC-SVG-20010904/DTD/svg10.dtd">
<svg version="1.0" xmlns="http://www.w3.org/2000/svg"
 width="332.000000pt" height="315.000000pt" viewBox="0 0 332.000000 315.000000"
 preserveAspectRatio="xMidYMid meet">

<g transform="translate(0.000000,315.000000) scale(0.100000,-0.100000)"
fill="#000000" stroke="none">
<path d="M1585 3021 c-210 -152 -1067 -774 -1280 -929 -132 -96 -239 -180
-239 -186 1 -10 88 -280 487 -1503 l121 -373 993 0 992 0 25 77 c13 43 148
458 299 923 151 465 277 854 281 866 5 16 -6 29 -56 66 -35 25 -304 220 -598
433 -294 214 -623 452 -730 530 -107 78 -200 144 -205 147 -6 4 -47 -19 -90
-51z m470 -247 c851 -618 1143 -830 1167 -849 l26 -20 -85 -260 c-46 -143
-141 -433 -210 -645 -69 -212 -166 -512 -217 -668 l-91 -282 -979 2 -980 3
-112 345 c-62 190 -196 602 -298 917 -102 314 -186 577 -186 585 1 7 204 160
453 340 249 180 601 436 782 568 182 132 337 238 345 236 8 -2 182 -124 385
-272z"/>
<path d="M1325 2771 c-187 -136 -531 -385 -765 -555 -234 -170 -428 -311 -432
-315 -7 -6 84 -292 468 -1469 l115 -352 956 2 957 3 183 565 c101 311 234 717
294 904 91 280 108 341 97 351 -7 7 -245 180 -528 385 -283 205 -621 451 -751
545 -129 94 -240 174 -245 177 -5 4 -162 -105 -349 -241z m821 -124 c259 -188
600 -436 758 -551 158 -114 285 -213 283 -220 -4 -9 -415 -1272 -537 -1648
l-41 -128 -943 0 -942 0 -193 593 c-293 901 -327 1005 -359 1104 l-30 92 521
378 c286 208 627 455 756 550 130 95 241 172 246 172 6 0 222 -153 481 -342z"/>
<path d="M1479 2807 c-583 -424 -1153 -837 -1216 -881 -44 -31 -70 -56 -67
-65 2 -7 88 -270 190 -585 102 -314 215 -661 251 -771 36 -110 77 -237 91
-282 l25 -83 913 0 913 0 6 23 c4 12 35 110 70 217 35 107 120 368 188 580 69
212 164 504 211 649 48 145 85 265 84 266 -2 1 -151 110 -333 242 -181 131
-511 370 -732 531 -222 161 -404 292 -407 292 -2 0 -86 -60 -187 -133z m205
-362 c4 -14 2 -34 -4 -44 -8 -16 -4 -20 36 -30 53 -14 113 -65 116 -101 3 -22
-1 -25 -32 -28 l-35 -4 20 24 19 23 -24 -22 -24 -23 -23 22 -23 22 -22 -22
-22 -22 -23 22 -23 22 -22 -22 -22 -22 -22 21 c-20 19 -22 19 -35 2 -12 -16
-12 -17 2 -5 13 10 19 9 29 -3 10 -13 9 -15 -8 -15 -42 0 -51 9 -40 41 13 39
61 77 111 90 l42 10 -3 45 c-3 34 -1 44 11 44 8 0 18 -11 21 -25z m-393 -114
c10 -43 3 -91 -12 -91 -16 0 -29 39 -29 88 0 78 24 80 41 3z m797 8 c2 -22 -2
-40 -12 -48 -12 -10 -11 -15 10 -36 29 -29 32 -50 7 -36 -10 5 -36 12 -57 15
-51 8 -54 13 -22 28 22 9 26 16 21 36 -8 33 13 84 34 80 10 -2 17 -16 19 -39z
m-1045 -139 c14 -91 29 -205 33 -255 5 -60 9 -80 13 -61 5 22 15 -11 43 -135
140 -617 146 -637 191 -686 20 -22 20 -23 1 -23 -10 0 -37 10 -58 23 -70 39
-82 78 -120 373 -19 142 -34 247 -35 232 0 -15 4 -61 10 -103 8 -58 7 -80 -2
-91 -6 -8 -14 -13 -16 -11 -14 14 -193 659 -193 695 0 27 10 63 25 93 24 48
75 122 80 117 2 -2 14 -77 28 -168z m1337 86 c62 -110 63 -100 -49 -481 -65
-223 -103 -339 -111 -337 -8 2 -10 -3 -5 -15 4 -10 13 -39 18 -64 9 -40 7 -55
-10 -100 l-21 -54 -11 29 c-7 18 -10 58 -7 100 3 44 -2 23 -13 -55 -25 -178
-62 -244 -146 -265 l-29 -7 19 29 c38 59 48 90 131 451 47 202 87 373 89 378
2 6 2 -24 0 -65 l-4 -75 10 60 c5 33 8 72 6 87 -2 15 0 25 5 22 4 -3 8 14 8
38 0 24 12 125 27 225 26 177 27 182 45 166 10 -9 32 -39 48 -67z m-740 -31
c11 -13 8 -15 -20 -15 -28 0 -31 2 -20 15 7 8 16 15 20 15 4 0 13 -7 20 -15z
m90 0 c11 -13 8 -15 -20 -15 -28 0 -31 2 -20 15 7 8 16 15 20 15 4 0 13 -7 20
-15z m-503 -42 c24 -16 57 -62 50 -70 -15 -14 -107 61 -107 88 0 10 26 1 57
-18z m-247 -386 c73 -244 116 -405 114 -423 -2 -16 3 -7 12 21 19 60 29 48 39
-47 7 -70 0 -128 -15 -128 -5 0 -17 26 -27 58 -9 31 -20 59 -24 62 -3 3 -40
75 -81 160 -42 85 -110 225 -152 312 -80 164 -86 192 -62 260 16 45 66 131 73
125 2 -3 58 -183 123 -400z m405 381 c-8 -27 -62 -85 -71 -76 -10 10 5 44 31
72 30 32 49 34 40 4z m479 0 c8 -13 8 -23 0 -35 -10 -16 -33 -18 -197 -21
-178 -2 -187 -2 -197 18 -8 14 -8 26 0 40 10 20 19 20 197 18 164 -3 187 -5
197 -20z m668 -76 c47 -98 44 -109 -130 -462 -145 -296 -150 -304 -159 -271
-8 30 7 88 111 434 134 446 120 422 178 299z m-1228 -4 c31 -226 40 -278 48
-278 4 0 8 6 8 14 0 17 36 63 61 76 37 21 21 -29 -26 -75 -43 -44 -44 -47 -38
-93 6 -50 22 -92 23 -60 0 33 90 115 90 82 0 -25 -66 -104 -87 -104 -16 0 -16
2 -2 -78 11 -64 12 -64 24 -36 15 34 62 84 81 84 22 0 -4 -56 -42 -90 -19 -16
-39 -30 -45 -30 -6 0 -8 -8 -6 -17 3 -10 8 -40 12 -68 l7 -50 19 37 c16 32 65
78 83 78 3 0 6 -9 6 -20 0 -23 -55 -89 -85 -100 -20 -8 -21 -11 -12 -74 l10
-66 21 37 c22 39 88 91 94 74 8 -25 -60 -110 -99 -123 -8 -3 -9 -22 -4 -68 7
-55 9 -62 19 -45 29 52 116 119 116 90 0 -29 -54 -91 -106 -121 -16 -10 -17
-15 -5 -53 10 -34 19 -46 48 -57 21 -9 47 -13 65 -8 21 4 28 3 24 -5 -9 -14
-66 -14 -100 -1 -30 11 -48 42 -55 95 -5 34 -10 40 -36 45 -51 11 -125 59
-125 82 0 29 102 -16 137 -61 11 -13 12 -7 7 39 -8 68 -19 90 -45 90 -11 0
-30 5 -42 11 -27 14 -77 60 -77 71 0 27 97 -17 129 -59 l21 -28 -5 35 c-3 19
-16 109 -30 200 -13 91 -43 283 -65 428 -22 145 -40 271 -39 280 1 23 16 -28
23 -80z m771 22 l29 -31 -39 6 c-22 3 -53 8 -69 11 l-28 6 28 18 c40 25 46 24
79 -10z m-525 -25 c-10 -12 -16 -13 -26 -4 -20 16 -18 19 12 19 22 0 25 -2 14
-15z m93 -7 l23 22 22 -22 22 -22 22 22 22 22 25 -23 26 -22 -20 23 -20 24 35
-4 c30 -3 35 -6 32 -27 -1 -14 -10 -33 -19 -43 -14 -16 -14 -18 1 -24 17 -7
22 -49 6 -59 -6 -4 -5 -13 2 -25 9 -14 9 -22 -2 -34 -11 -14 -35 -16 -159 -14
l-146 3 -1 32 c0 18 -3 36 -7 39 -12 12 -8 41 8 54 10 8 12 17 6 24 -6 6 -15
24 -21 40 -10 29 -10 29 14 13 22 -15 25 -15 42 4 17 19 18 19 41 -3 l23 -21
23 21z m-3 7 c-9 -11 -17 -12 -31 -4 -27 14 -24 19 12 19 27 0 30 -2 19 -15z
m87 -2 c-16 -16 -18 -16 -34 0 -16 16 -15 17 17 17 32 0 33 -1 17 -17z m-497
-48 c27 -14 70 -60 70 -75 0 -5 -9 -6 -21 -3 -24 7 -89 66 -89 82 0 14 5 14
40 -4z m180 -5 c0 -22 -65 -99 -75 -89 -11 11 21 75 46 93 29 20 29 20 29 -4z
m636 1 c-3 -4 3 -16 14 -26 28 -25 25 -30 -15 -30 -19 0 -35 3 -35 7 0 3 -13
5 -30 4 -63 -4 -21 28 68 53 2 1 1 -3 -2 -8z m-1160 -344 l165 -332 -16 -39
c-9 -21 -20 -35 -24 -30 -31 33 -315 424 -323 444 -16 38 -12 172 6 234 9 31
19 56 22 56 2 0 79 -150 170 -333z m1752 281 c19 -74 25 -171 13 -213 -11 -44
-324 -472 -341 -467 -6 1 -10 -8 -10 -20 0 -27 -21 -53 225 265 153 198 211
265 219 257 6 -6 11 -49 11 -103 0 -147 -13 -167 -225 -347 -175 -148 -175
-148 -185 -122 -8 18 -14 22 -19 14 -4 -7 -12 -10 -17 -7 -5 4 -9 1 -9 -6 0
-7 -14 -35 -32 -62 l-32 -50 -14 34 c-15 36 -13 49 30 149 18 43 20 44 34 26
16 -23 19 -14 4 14 -8 15 21 82 157 354 92 184 170 333 174 331 3 -3 11 -24
17 -47z m-584 -77 c24 -26 14 -38 -19 -23 -16 7 -25 8 -25 1 0 -6 -7 -6 -20 1
-12 6 -30 8 -40 5 -30 -9 -14 24 17 36 14 5 21 14 18 20 -11 17 48 -17 69 -40z
m-787 -11 c31 -19 59 -57 50 -67 -10 -9 -46 8 -76 37 -52 47 -35 67 26 30z
m553 -38 c0 -10 -3 -22 -7 -26 -5 -4 -8 -22 -8 -39 l0 -32 -137 -3 c-129 -2
-137 -2 -143 18 -3 11 -4 24 0 30 3 5 1 19 -5 30 -6 11 -8 25 -5 30 4 6 69 10
156 10 138 0 149 -1 149 -18z m195 -33 c-3 -3 4 -14 15 -24 11 -10 20 -22 20
-26 0 -7 -36 -5 -85 5 -11 3 -26 5 -32 5 -23 2 -14 17 18 32 32 15 71 20 64 8z
m-1186 -303 c154 -198 192 -252 188 -271 -3 -17 8 -43 34 -82 22 -32 39 -65
40 -73 0 -10 3 -8 9 5 7 16 9 11 9 -22 1 -52 13 -83 44 -117 20 -22 33 -26 75
-26 47 0 56 4 97 43 25 24 45 51 45 61 0 32 18 6 25 -35 5 -28 3 -44 -4 -49
-17 -10 53 -70 82 -70 51 -1 60 -31 12 -43 -13 -3 -9 -5 13 -6 22 -1 32 -6 32
-16 0 -9 7 -29 15 -45 15 -29 15 -29 -18 -33 -17 -2 45 -4 138 -4 94 0 156 2
139 4 l-30 4 20 44 c14 30 28 45 41 46 18 1 18 2 2 6 -29 8 -15 37 21 44 19 4
47 19 63 35 32 31 45 27 35 -10 -4 -16 -21 -33 -44 -45 -20 -11 -32 -20 -27
-21 22 0 75 41 80 63 5 19 12 22 43 20 20 -1 28 0 17 3 -59 14 -95 28 -95 38
0 6 5 29 11 51 l11 39 13 -30 c7 -17 31 -45 53 -62 33 -27 49 -32 92 -32 55 0
80 -9 119 -44 l24 -21 -12 23 c-7 13 -11 25 -9 27 2 1 29 17 61 35 46 26 57
29 57 15 0 -25 -27 -71 -54 -92 l-24 -19 149 -49 c82 -27 149 -53 149 -57 0
-11 -56 -45 -107 -64 -55 -21 -76 -15 -156 47 -58 44 -65 54 -56 71 6 10 8 29
6 41 -3 18 -5 17 -6 -6 0 -17 -13 -41 -30 -58 -35 -35 -59 -39 -37 -7 9 12 16
34 16 48 0 29 -25 70 -42 70 -7 0 -2 -9 10 -20 26 -24 28 -66 6 -98 -15 -22
-14 -23 21 -38 21 -8 59 -18 86 -21 27 -3 52 -10 55 -15 3 -4 -8 -22 -25 -38
-61 -61 -155 -21 -232 99 -16 25 -29 41 -29 35 0 -27 87 -124 140 -157 19 -11
52 -35 73 -51 34 -27 36 -31 20 -38 -13 -6 -12 -7 6 -4 14 3 31 0 38 -6 7 -6
13 -8 13 -5 0 3 -23 22 -50 42 -72 53 -55 55 23 3 67 -44 78 -61 53 -75 -26
-14 -66 -97 -66 -135 0 -33 -3 -38 -23 -38 -13 0 -32 9 -42 20 -26 29 -92 65
-165 91 -63 23 -76 24 -390 24 -353 0 -387 -4 -491 -56 -31 -15 -70 -39 -86
-53 -17 -14 -41 -26 -53 -26 -19 0 -21 4 -16 25 8 32 -21 101 -57 135 -15 14
-27 28 -27 32 0 7 125 98 136 98 4 0 -1 -9 -12 -21 -11 -12 5 -5 36 16 61 40
136 109 152 140 6 11 -13 -6 -42 -38 -81 -89 -139 -109 -194 -66 -42 33 -35
56 22 61 26 3 64 12 85 21 37 16 38 17 23 39 -24 34 -20 73 10 97 15 12 22 21
16 21 -19 0 -52 -43 -52 -68 0 -13 5 -32 10 -43 8 -15 7 -19 -4 -19 -20 0 -56
48 -56 75 0 28 33 72 61 80 11 4 18 9 16 12 -3 2 -15 0 -26 -7 -18 -9 -23 -7
-33 15 -6 14 -14 21 -18 16 -3 -6 -19 -3 -38 10 -35 21 -62 71 -62 114 l0 26
45 -38 c34 -28 45 -45 46 -68 1 -24 3 -22 10 15 5 25 7 50 5 55 -3 6 -5 2 -5
-7 -1 -27 -15 -22 -55 22 -32 36 -36 46 -36 95 0 30 5 55 10 55 6 0 10 5 10
10 0 19 -18 10 -27 -14 -8 -23 -15 -18 -178 121 -93 80 -180 161 -191 180 -40
64 -57 228 -28 274 9 15 5 21 243 -285z m434 240 c31 -13 93 -74 83 -83 -15
-16 -126 62 -126 88 0 12 5 11 43 -5z m535 -38 c-3 -23 -6 -23 -133 -23 -127
0 -130 0 -133 23 -3 22 -3 22 133 22 136 0 136 0 133 -22z m242 -78 c0 -10 -3
-10 -15 0 -8 7 -26 10 -40 8 -14 -3 -25 -1 -25 4 0 5 -6 8 -12 7 -59 -7 -63
15 -7 40 l41 19 29 -33 c16 -18 29 -38 29 -45z m-243 24 c2 -7 -3 -19 -12 -28
-9 -9 -12 -16 -6 -16 12 0 15 -33 4 -43 -3 -4 -7 -31 -8 -59 -1 -29 -3 -56 -4
-60 0 -5 -48 -8 -105 -8 -106 0 -126 8 -106 41 5 8 5 19 -1 26 -6 6 -9 20 -8
30 1 10 -1 26 -6 36 -4 11 -3 23 3 29 8 8 7 15 -3 25 -8 7 -12 20 -8 29 4 12
27 14 131 12 82 -2 127 -7 129 -14z m-485 -69 c45 -30 67 -65 43 -65 -31 0
-115 60 -115 82 0 16 36 7 72 -17z m681 -33 c15 -15 27 -30 27 -33 0 -8 -38
-4 -46 4 -4 4 -13 2 -21 -4 -9 -8 -13 -8 -13 -1 0 7 -15 10 -34 8 -27 -2 -33
1 -27 12 9 16 50 40 72 41 8 1 27 -12 42 -27z m823 -44 c-10 -78 -43 -170 -74
-206 -18 -21 -86 -60 -200 -117 -95 -47 -177 -85 -182 -85 -6 0 -11 12 -11 28
l-2 27 -4 -27 c-2 -15 -23 -44 -47 -66 -36 -33 -44 -48 -48 -86 -3 -25 -11
-53 -18 -61 -11 -13 -16 -13 -42 1 -29 15 -30 16 -10 30 22 15 46 76 39 97 -2
6 -7 -5 -11 -25 -8 -45 -55 -88 -97 -88 -16 0 -49 10 -72 21 l-42 22 54 25
c65 31 97 76 115 162 8 43 15 58 19 46 19 -48 -8 -169 -44 -202 -12 -10 -43
-21 -72 -25 l-52 -6 50 -1 c76 -2 107 30 131 138 7 31 13 44 13 30 1 -14 7
-32 14 -41 10 -13 18 -6 57 52 25 38 48 69 52 69 4 0 8 -11 10 -25 3 -24 22
-10 238 170 129 107 236 195 238 195 3 0 2 -24 -2 -52z m-2061 -145 c220 -184
225 -189 225 -225 0 -21 -5 -38 -10 -38 -6 0 -91 40 -190 90 -176 88 -180 91
-209 142 -38 66 -73 218 -50 218 5 0 110 -84 234 -187z m548 93 c34 -14 94
-72 85 -81 -19 -19 -128 51 -128 81 0 17 3 17 43 0z m682 -38 c32 -38 21 -46
-33 -26 -20 8 -49 14 -64 13 -34 -1 -36 9 -6 29 36 26 73 20 103 -16z m-217
-10 c-3 -22 -7 -23 -103 -23 -96 0 -100 1 -103 23 -3 22 -2 22 103 22 105 0
106 0 103 -22z m-10 -60 c-3 -22 -7 -23 -93 -23 -86 0 -90 1 -93 23 -3 21 -1
22 93 22 94 0 96 -1 93 -22z m-665 -90 c31 -82 31 -86 17 -124 l-11 -27 -34
51 c-23 34 -35 63 -35 86 0 38 15 86 27 86 5 0 21 -33 36 -72z m862 41 c19
-17 35 -38 35 -48 0 -10 -3 -12 -8 -5 -6 10 -89 26 -134 25 -30 0 -20 16 25
37 23 12 43 21 44 22 1 0 18 -14 38 -31z m-195 -2 c0 -8 -3 -17 -7 -21 -4 -4
-7 -19 -8 -34 l0 -27 -80 0 c-75 0 -80 1 -83 23 -2 12 2 22 8 22 7 0 5 7 -4
16 -27 27 -8 34 85 34 67 0 89 -3 89 -13z m-1011 -107 c208 -99 221 -107 221
-132 0 -16 -4 -28 -8 -28 -32 0 -293 53 -319 65 -18 8 -43 31 -57 52 -32 48
-80 156 -67 151 5 -1 108 -50 230 -108z m2050 58 c-26 -70 -67 -128 -104 -149
-23 -13 -289 -69 -328 -69 -4 0 -7 12 -7 26 0 23 19 34 223 134 122 60 225
109 229 109 4 1 -1 -23 -13 -51z m-1597 -179 c21 -35 40 -52 80 -71 l52 -25
-27 -17 c-34 -23 -98 -31 -126 -16 -41 22 -61 69 -60 145 0 73 11 69 24 -9 4
-26 18 -51 40 -73 29 -29 39 -33 82 -32 l48 2 -50 6 c-62 8 -71 13 -94 59 -18
36 -27 97 -22 157 2 24 5 19 15 -25 6 -31 24 -76 38 -101z m540 111 c-2 -8 -6
-37 -9 -65 -2 -27 -8 -54 -12 -58 -5 -5 -32 -7 -62 -5 -42 2 -55 7 -57 21 -3
15 6 17 60 19 l63 2 -62 3 c-64 4 -86 21 -62 49 8 10 8 14 0 14 -6 0 -11 9
-11 20 0 19 5 21 78 18 62 -2 76 -6 74 -18z m196 -19 c34 -32 41 -47 17 -37
-8 3 -15 0 -15 -6 0 -7 -4 -7 -13 1 -13 10 -55 19 -101 20 -23 1 -13 15 26 36
36 20 51 17 86 -14z m397 -164 c-9 -19 -28 -40 -43 -48 -15 -7 -30 -15 -34
-17 -3 -2 -4 16 -1 40 4 34 14 50 47 79 l41 37 3 -29 c2 -16 -4 -44 -13 -62z
m-1545 47 c102 -15 188 -33 192 -38 11 -16 10 -28 -2 -21 -6 4 -10 -7 -10 -24
l0 -31 -120 0 c-160 0 -193 14 -273 114 l-31 39 29 -5 c17 -4 113 -19 215 -34z
m1972 9 c-34 -47 -85 -91 -124 -107 -27 -12 -72 -16 -158 -16 l-120 0 0 25 c0
14 -5 25 -10 25 -8 0 -8 6 -1 18 7 13 50 24 203 48 251 41 234 41 210 7z
m-1034 -30 c-2 -14 -15 -19 -57 -21 -36 -2 -57 1 -62 9 -14 23 1 29 62 29 52
0 60 -2 57 -17z m152 -9 c0 -15 -12 -38 -29 -55 -25 -24 -37 -29 -80 -29 -28
0 -51 5 -51 10 0 6 21 10 46 10 59 0 80 12 94 55 14 42 20 44 20 9z m-160 -45
c0 -18 -5 -20 -52 -17 -41 2 -54 7 -56 21 -3 14 5 17 52 17 50 0 56 -2 56 -21z
m-620 -73 c-1 -18 -26 -46 -42 -46 -27 0 -78 72 -78 111 0 6 27 -4 60 -22 33
-17 60 -37 60 -43z m615 34 c3 -5 3 -16 -2 -22 -4 -7 -6 -23 -4 -35 1 -13 -2
-23 -7 -23 -5 0 -7 -11 -4 -25 4 -23 1 -25 -33 -25 -32 0 -36 3 -34 23 1 12
-2 30 -6 41 -5 12 -3 21 6 27 10 6 10 9 2 9 -7 0 -13 9 -13 20 0 17 7 20 44
20 25 0 48 -4 51 -10z m-725 -29 c5 -11 17 -27 26 -36 9 -9 15 -17 13 -19 -2
-1 -46 -15 -97 -30 -90 -27 -94 -28 -135 -12 -23 9 -64 35 -92 58 l-49 43 49
6 c28 3 100 7 162 7 101 2 113 0 123 -17z m1622 13 l66 -7 -50 -43 c-28 -24
-70 -51 -94 -60 -40 -15 -45 -15 -130 11 -49 15 -91 29 -93 30 -2 2 7 20 19
39 l22 36 96 0 c53 0 127 -3 164 -6z m-1536 -109 l11 -36 -70 -54 c-46 -36
-80 -55 -98 -55 -29 0 -150 58 -156 75 -3 10 253 102 287 104 9 1 20 -14 26
-34z m622 -32 c-2 -12 -13 -18 -33 -18 -20 0 -31 6 -33 18 -3 14 4 17 33 17
29 0 36 -3 33 -17z"/>
<path d="M1093 1815 c0 -22 2 -30 4 -17 2 12 2 30 0 40 -3 9 -5 -1 -4 -23z"/>
<path d="M1103 1735 c0 -22 2 -30 4 -17 2 12 2 30 0 40 -3 9 -5 -1 -4 -23z"/>
<path d="M2223 1715 c0 -22 2 -30 4 -17 2 12 2 30 0 40 -3 9 -5 -1 -4 -23z"/>
<path d="M2213 1635 c0 -22 2 -30 4 -17 2 12 2 30 0 40 -3 9 -5 -1 -4 -23z"/>
<path d="M2203 1555 c0 -22 2 -30 4 -17 2 12 2 30 0 40 -3 9 -5 -1 -4 -23z"/>
<path d="M2191 1475 c0 -35 1 -37 10 -17 6 15 5 30 -1 40 -7 13 -9 8 -9 -23z"/>
<path d="M1320 959 l-35 -8 37 3 c21 1 40 -3 42 -9 2 -5 5 -2 5 8 1 9 -2 16
-6 16 -5 -1 -24 -5 -43 -10z"/>
<path d="M1208 923 c7 -3 16 -2 19 1 4 3 -2 6 -13 5 -11 0 -14 -3 -6 -6z"/>
<path d="M1379 917 c12 -15 11 -21 -5 -40 -19 -22 -19 -22 2 -4 13 11 28 15
40 11 10 -4 17 -5 14 -3 -3 2 -18 15 -35 29 -16 14 -23 17 -16 7z"/>
<path d="M2118 923 c7 -3 16 -2 19 1 4 3 -2 6 -13 5 -11 0 -14 -3 -6 -6z"/>
<path d="M1259 897 c19 -21 22 -33 18 -59 -5 -28 -4 -30 5 -11 14 30 3 70 -25
84 -22 12 -22 11 2 -14z"/>
<path d="M2065 900 c-26 -28 -15 -31 12 -3 12 13 19 23 14 23 -4 0 -16 -9 -26
-20z"/>
<path d="M1982 795 c0 -16 2 -22 5 -12 2 9 2 23 0 30 -3 6 -5 -1 -5 -18z"/>
<path d="M1341 794 c0 -11 3 -14 6 -6 3 7 2 16 -1 19 -3 4 -6 -2 -5 -13z"/>
<path d="M1443 753 c9 -2 25 -2 35 0 9 3 1 5 -18 5 -19 0 -27 -2 -17 -5z"/>
<path d="M1853 753 c9 -2 25 -2 35 0 9 3 1 5 -18 5 -19 0 -27 -2 -17 -5z"/>
<path d="M1963 746 c-9 -11 -8 -15 6 -19 14 -3 17 0 14 14 -6 22 -5 22 -20 5z"/>
<path d="M1398 743 c7 -3 16 -2 19 1 4 3 -2 6 -13 5 -11 0 -14 -3 -6 -6z"/>
<path d="M1918 743 c7 -3 16 -2 19 1 4 3 -2 6 -13 5 -11 0 -14 -3 -6 -6z"/>
<path d="M1333 720 c-46 -27 -41 -34 5 -8 46 27 48 28 36 28 -5 0 -24 -9 -41
-20z"/>
<path d="M2016 698 c10 -14 21 -24 23 -22 3 3 -6 15 -18 27 l-24 22 19 -27z"/>
<path d="M1453 693 c9 -2 23 -2 30 0 6 3 -1 5 -18 5 -16 0 -22 -2 -12 -5z"/>
<path d="M1853 693 c9 -2 23 -2 30 0 6 3 -1 5 -18 5 -16 0 -22 -2 -12 -5z"/>
<path d="M1908 683 c7 -3 16 -2 19 1 4 3 -2 6 -13 5 -11 0 -14 -3 -6 -6z"/>
<path d="M1283 656 c-21 -11 -19 -11 17 -11 21 0 38 0 37 0 -1 0 -9 6 -17 12
-11 8 -21 8 -37 -1z"/>
<path d="M1974 656 c11 -9 24 -16 30 -16 12 0 7 5 -24 19 -24 11 -24 11 -6 -3z"/>
<path d="M2050 645 c46 -18 64 -17 25 0 -16 8 -37 14 -45 14 -8 0 1 -7 20 -14z"/>
<path d="M1185 619 c-27 -10 -37 -17 -21 -14 31 7 97 33 81 33 -5 0 -32 -8
-60 -19z"/>
<path d="M1570 618 c0 -33 14 -51 36 -46 14 2 19 12 19 33 0 25 -4 31 -27 33
-24 3 -28 0 -28 -20z m48 -16 c2 -15 -2 -22 -12 -22 -11 0 -16 9 -16 26 0 31
23 28 28 -4z"/>
<path d="M1662 615 c-15 -31 -16 -56 -2 -35 8 12 13 13 30 2 23 -14 23 -14 9
27 -13 38 -22 39 -37 6z m23 -5 c3 -5 1 -10 -4 -10 -6 0 -11 5 -11 10 0 6 2
10 4 10 3 0 8 -4 11 -10z"/>
<path d="M1731 605 c1 -33 2 -36 8 -15 l7 25 8 -22 c12 -36 26 -27 25 15 -1
23 -3 29 -6 14 l-4 -22 -19 22 -19 23 0 -40z"/>
<path d="M1824 630 c-5 -8 -14 -25 -21 -38 -11 -21 -10 -22 14 -16 16 4 28 2
34 -7 14 -22 11 10 -5 46 -10 23 -14 26 -22 15z m16 -30 c0 -5 -4 -10 -10 -10
-5 0 -10 5 -10 10 0 6 5 10 10 10 6 0 10 -4 10 -10z"/>
<path d="M1405 622 c-6 -4 -8 -22 -4 -42 3 -19 7 -27 8 -17 1 20 21 22 40 5
11 -11 12 -10 5 2 -4 8 -8 24 -9 35 0 21 -23 30 -40 17z m35 -11 c0 -5 -7 -11
-15 -15 -9 -3 -15 0 -15 9 0 8 7 15 15 15 8 0 15 -4 15 -9z"/>
<path d="M1481 599 c-14 -41 -14 -44 4 -29 8 6 23 9 35 5 21 -7 21 -6 5 24
-20 39 -30 39 -44 0z m29 1 c0 -5 -4 -10 -10 -10 -5 0 -10 5 -10 10 0 6 5 10
10 10 6 0 10 -4 10 -10z"/>
<path d="M1906 614 c-3 -9 -6 -25 -6 -37 0 -18 2 -19 10 -7 9 13 12 13 24 -2
18 -25 21 -23 22 15 2 43 -36 67 -50 31z m35 -7 c-1 -12 -15 -9 -19 4 -3 6 1
10 8 8 6 -3 11 -8 11 -12z"/>
<path d="M1337 610 c-11 -32 -14 -70 -6 -70 5 0 9 5 9 11 0 7 10 9 26 5 22 -6
24 -4 15 11 -5 10 -16 27 -25 38 -12 16 -15 17 -19 5z m23 -30 c0 -5 -4 -10
-10 -10 -5 0 -10 5 -10 10 0 6 5 10 10 10 6 0 10 -4 10 -10z"/>
<path d="M1021 591 l-23 -18 33 0 c19 0 26 2 16 4 -14 4 -16 8 -6 19 15 19 9
17 -20 -5z"/>
<path d="M1986 585 c-21 -32 -20 -34 5 -28 12 4 25 0 30 -8 7 -11 9 -9 9 8 0
27 -10 53 -20 53 -4 0 -15 -11 -24 -25z"/>
<path d="M2200 595 c19 -7 42 -13 50 -13 8 0 -1 6 -20 13 -19 7 -42 13 -50 13
-8 0 1 -6 20 -13z"/>
<path d="M1085 590 c-13 -5 -14 -9 -5 -9 8 0 24 4 35 9 13 5 14 9 5 9 -8 0
-24 -4 -35 -9z"/>
<path d="M1244 586 c-3 -8 -4 -23 -2 -33 5 -25 61 -25 66 0 2 10 -3 17 -12 17
-10 0 -13 -6 -9 -16 4 -12 1 -15 -13 -12 -25 4 -26 44 -1 42 9 -1 17 2 17 7 0
15 -40 10 -46 -5z"/>
<path d="M2057 579 c-11 -39 -8 -57 5 -35 10 18 11 18 25 -5 l14 -24 -5 27
c-5 19 -1 30 11 37 10 6 14 10 8 11 -5 0 -17 -5 -25 -10 -11 -7 -17 -5 -21 7
-4 14 -7 12 -12 -8z"/>
<path d="M1176 538 c-8 -38 -2 -45 19 -24 9 9 21 14 26 11 16 -11 9 12 -9 28
-25 23 -29 22 -36 -15z"/>
<path d="M2125 550 c-3 -11 0 -29 8 -40 12 -18 15 -18 33 -4 18 15 18 15 -3 9
-20 -5 -23 -3 -23 20 0 24 3 26 26 21 17 -5 23 -3 19 4 -11 18 -53 11 -60 -10z"/>
<path d="M1130 531 c13 -26 15 -25 -37 -4 -19 8 -15 -9 8 -37 14 -17 19 -19
15 -7 -4 14 -1 16 19 11 30 -7 31 3 4 36 l-20 25 11 -24z"/>
<path d="M2206 514 c-16 -14 -23 -25 -15 -24 28 4 39 0 39 -17 0 -15 2 -16 10
-3 11 18 13 70 3 70 -5 0 -21 -12 -37 -26z m34 -4 c0 -5 -5 -10 -11 -10 -5 0
-7 5 -4 10 3 6 8 10 11 10 2 0 4 -4 4 -10z"/>
<path d="M2241 1094 c0 -11 3 -14 6 -6 3 7 2 16 -1 19 -3 4 -6 -2 -5 -13z"/>
</g>
</svg>
